<svg width="512" height="512" viewBox="0 0 512 512" fill="none" xmlns="http://www.w3.org/2000/svg">
  <defs>
    <linearGradient id="carBlue" x1="104" y1="252" x2="408" y2="354" gradientUnits="userSpaceOnUse">
      <stop stop-color="#0756C9"/>
      <stop offset="0.46" stop-color="#168EF4"/>
      <stop offset="1" stop-color="#063FA8"/>
    </linearGradient>
    <linearGradient id="glassBlue" x1="166" y1="212" x2="348" y2="262" gradientUnits="userSpaceOnUse">
      <stop stop-color="#E7FAFF"/>
      <stop offset="1" stop-color="#8BD7FF"/>
    </linearGradient>
    <linearGradient id="shine" x1="116" y1="290" x2="397" y2="319" gradientUnits="userSpaceOnUse">
      <stop stop-color="#FFFFFF"/>
      <stop offset="0.55" stop-color="#BFEAFF"/>
      <stop offset="1" stop-color="#FFFFFF"/>
    </linearGradient>
    <radialGradient id="bubble" cx="0" cy="0" r="1" gradientUnits="userSpaceOnUse" gradientTransform="translate(256 192) rotate(90) scale(145 214)">
      <stop stop-color="#FFFFFF"/>
      <stop offset="1" stop-color="#80D8FF"/>
    </radialGradient>
    <filter id="drop" x="63" y="127" width="386" height="295" filterUnits="userSpaceOnUse" color-interpolation-filters="sRGB">
      <feDropShadow dx="0" dy="18" stdDeviation="18" flood-color="#1057A6" flood-opacity="0.18"/>
    </filter>
    <filter id="smallShadow" x="0" y="0" width="512" height="512" filterUnits="userSpaceOnUse" color-interpolation-filters="sRGB">
      <feDropShadow dx="0" dy="8" stdDeviation="8" flood-color="#1066D6" flood-opacity="0.1"/>
    </filter>
  </defs>

  <g filter="url(#smallShadow)">
    <circle cx="146" cy="179" r="22" fill="url(#bubble)" opacity="0.92"/>
    <circle cx="190" cy="143" r="14" fill="#BFEAFF"/>
    <circle cx="245" cy="126" r="20" fill="#EAF9FF"/>
    <circle cx="302" cy="139" r="14" fill="#9FE3FF"/>
    <circle cx="354" cy="178" r="24" fill="#DFF8FF"/>
    <circle cx="387" cy="222" r="13" fill="#8CDAFF"/>
    <circle cx="113" cy="231" r="12" fill="#A8E8FF"/>
    <path d="M161 200C202 170 310 169 355 203" stroke="#79D9FF" stroke-width="9" stroke-linecap="round" opacity="0.55"/>
    <path d="M133 230C193 208 315 209 381 232" stroke="#DDF8FF" stroke-width="11" stroke-linecap="round" opacity="0.9"/>
  </g>

  <g filter="url(#drop)">
    <path d="M101 301C109 262 141 236 192 228L274 216C328 209 380 235 411 282L426 305C439 326 424 354 399 354H113C92 354 80 330 93 313L101 301Z" fill="url(#carBlue)"/>
    <path d="M154 250C174 225 200 212 234 208H283C317 210 348 229 373 260C314 269 240 270 148 260C149 257 151 253 154 250Z" fill="url(#glassBlue)"/>
    <path d="M227 213L212 261" stroke="#0B61C7" stroke-width="8" stroke-linecap="round" opacity="0.42"/>
    <path d="M288 214L307 263" stroke="#0B61C7" stroke-width="8" stroke-linecap="round" opacity="0.42"/>
    <path d="M104 307C155 326 251 334 414 311" stroke="url(#shine)" stroke-width="12" stroke-linecap="round" opacity="0.92"/>
    <path d="M121 288H172" stroke="#071B31" stroke-width="10" stroke-linecap="round" opacity="0.78"/>
    <path d="M339 285H394" stroke="#071B31" stroke-width="10" stroke-linecap="round" opacity="0.72"/>
    <path d="M187 239C214 231 248 227 287 226" stroke="#E5FBFF" stroke-width="6" stroke-linecap="round" opacity="0.72"/>
    <path d="M247 302C268 307 290 306 311 301" stroke="#7CD7FF" stroke-width="6" stroke-linecap="round" opacity="0.75"/>
    <circle cx="151" cy="352" r="36" fill="#102236"/>
    <circle cx="151" cy="352" r="23" fill="#ECF8FF"/>
    <circle cx="151" cy="352" r="10" fill="#9CB8CF"/>
    <circle cx="364" cy="352" r="36" fill="#102236"/>
    <circle cx="364" cy="352" r="23" fill="#ECF8FF"/>
    <circle cx="364" cy="352" r="10" fill="#9CB8CF"/>
  </g>

  <g filter="url(#smallShadow)">
    <path d="M111 243C126 224 151 223 166 243C179 260 173 284 154 292L87 320C76 325 65 316 68 304L84 235C89 214 114 205 131 219" fill="#FFD95C"/>
    <path d="M93 251C113 246 142 248 160 257" stroke="#FFF4BC" stroke-width="9" stroke-linecap="round"/>
    <circle cx="108" cy="238" r="5" fill="#E7A900"/>
    <circle cx="137" cy="245" r="5" fill="#E7A900"/>
    <circle cx="119" cy="269" r="5" fill="#E7A900"/>
  </g>

  <g opacity="0.95">
    <circle cx="392" cy="167" r="7" fill="#EAF9FF"/>
    <circle cx="413" cy="194" r="10" fill="#BFEAFF"/>
    <circle cx="411" cy="250" r="7" fill="#EAF9FF"/>
    <circle cx="96" cy="188" r="8" fill="#EAF9FF"/>
    <circle cx="71" cy="257" r="9" fill="#BFEAFF"/>
  </g>
</svg>
